<svg width="32" height="32" viewBox="0 0 32 32" fill="none" xmlns="http://www.w3.org/2000/svg">
<g clip-path="url(#clip0_6501_5736)">
<path d="M29.8203 21.2809C28.1948 19.9746 26.7037 19.3395 25.2617 19.3395C23.1758 19.3395 21.6739 20.6665 20.3142 22.0258C20.1578 22.1823 19.9685 22.2552 19.7184 22.2552C18.5726 22.2553 16.5569 20.8204 13.7272 17.9904C10.3982 14.6612 9.13957 12.5437 9.9859 11.6971C12.2802 9.40353 12.9965 7.10432 9.48372 2.73568C8.22619 1.17054 6.99584 0.409851 5.72239 0.409851C4.005 0.409851 2.69948 1.78265 1.54765 2.99395C1.34851 3.20334 1.1604 3.40114 0.975963 3.58557C-0.325889 4.88731 -0.325221 7.72668 0.977856 11.1813C2.40757 14.9717 5.23045 19.095 8.92662 22.7917C11.785 25.6499 14.8952 27.9598 17.921 29.5107C20.5627 30.8648 23.125 31.5902 25.1361 31.5902C25.1363 31.5902 25.1366 31.5902 25.1369 31.5902C26.3954 31.5902 27.4177 31.3157 28.0929 30.7574C29.4643 29.6235 32.017 27.5232 32 25.0284C31.9906 23.6904 31.2575 22.4364 29.8203 21.2809Z" fill="white"/>
</g>
<defs>
<clipPath id="clip0_6501_5736">
<rect width="32" height="32" fill="white"/>
</clipPath>
</defs>
</svg>
