<svg width="32" height="32" viewBox="0 0 32 32" fill="none" xmlns="http://www.w3.org/2000/svg">
<g clip-path="url(#clip0_6501_2437)">
<path d="M2.672 29.3334L4.47467 22.7094C3.28685 20.6732 2.66279 18.3573 2.66667 16C2.66667 8.63602 8.636 2.66669 16 2.66669C23.364 2.66669 29.3333 8.63602 29.3333 16C29.3333 23.364 23.364 29.3334 16 29.3334C13.6437 29.3372 11.3289 28.7136 9.29333 27.5267L2.672 29.3334ZM11.188 9.74402C11.0158 9.75471 10.8476 9.80006 10.6933 9.87735C10.5487 9.95926 10.4167 10.0617 10.3013 10.1814C10.1413 10.332 10.0507 10.4627 9.95333 10.5894C9.46055 11.2307 9.19548 12.0179 9.2 12.8267C9.20267 13.48 9.37333 14.116 9.64 14.7107C10.1853 15.9134 11.0827 17.1867 12.268 18.3667C12.5533 18.6507 12.832 18.936 13.132 19.2014C14.6032 20.4966 16.3563 21.4307 18.252 21.9294L19.0107 22.0454C19.2573 22.0587 19.504 22.04 19.752 22.028C20.1403 22.008 20.5195 21.9028 20.8627 21.72C21.084 21.6027 21.188 21.544 21.3733 21.4267C21.3733 21.4267 21.4307 21.3894 21.54 21.3067C21.72 21.1734 21.8307 21.0787 21.98 20.9227C22.0907 20.808 22.1867 20.6734 22.26 20.52C22.364 20.3027 22.468 19.888 22.5107 19.5427C22.5427 19.2787 22.5333 19.1347 22.5293 19.0454C22.524 18.9027 22.4053 18.7547 22.276 18.692L21.5 18.344C21.5 18.344 20.34 17.8387 19.632 17.516C19.5574 17.4835 19.4774 17.465 19.396 17.4614C19.3048 17.452 19.2126 17.4622 19.1257 17.4915C19.0387 17.5207 18.9591 17.5681 18.892 17.6307V17.628C18.8853 17.628 18.796 17.704 17.832 18.872C17.7767 18.9464 17.7005 19.0026 17.6131 19.0334C17.5257 19.0643 17.4311 19.0685 17.3413 19.0454C17.2545 19.0221 17.1694 18.9927 17.0867 18.9574C16.9213 18.888 16.864 18.8614 16.7507 18.812L16.744 18.8094C15.9812 18.4763 15.275 18.0265 14.6507 17.476C14.4827 17.3294 14.3267 17.1694 14.1667 17.0147C13.6421 16.5123 13.185 15.944 12.8067 15.324L12.728 15.1974C12.6715 15.1122 12.6258 15.0204 12.592 14.924C12.5413 14.728 12.6733 14.5707 12.6733 14.5707C12.6733 14.5707 12.9973 14.216 13.148 14.024C13.2735 13.8644 13.3905 13.6984 13.4987 13.5267C13.656 13.2734 13.7053 13.0134 13.6227 12.812C13.2493 11.9 12.8627 10.992 12.4653 10.0907C12.3867 9.91202 12.1533 9.78402 11.9413 9.75869C11.8693 9.75069 11.7973 9.74269 11.7253 9.73735C11.5463 9.72846 11.3668 9.73024 11.188 9.74269V9.74402Z" fill="white"/>
</g>
<defs>
<clipPath id="clip0_6501_2437">
<rect width="32" height="32" fill="white"/>
</clipPath>
</defs>
</svg>
